# xmcd CD database file
#
# Track frame offsets:
#	150
#	20627
#	37503
#	56377
#	69378
#	83722
#	99178
#	116793
#	134180
#	153115
#	169765
#	184076
#	203466
#	218065
#	234966
#	252167
#	271717
#	286016
#	303611
#	320216
#
# Disc length: 4471 seconds
#
# Revision: 1
# Processed by: cddbd v1.5.2PL0 Copyright (c) Steve Scherf et al.
# Submitted via: CDex 1.70beta3
#
DISCID=08117514
DTITLE=Various Artist - EXIT TRANCE PRESENTS ウマウマできるトランスを作ってみた9 ここに病院を建てよう
DYEAR=2010
DGENRE=Trance
TTITLE0=1. 女々しくて
TTITLE1=2. Alejandro
TTITLE2=3. みらくるハッピーディ (エンディング/聖剣の刀鍛冶(ブラックスミス))
TTITLE3=4. 十六夜涙
TTITLE4=5. ハリケーンミキサー
TTITLE5=6. 今宵、月が見えずとも (主題歌/劇場版BLEACH FADE TO BLACK君の名を呼ぶ)
TTITLE6=7. YOU and ME
TTITLE7=8. ホログラム (オープニング/鋼の錬金術師FULLMETAL ALCHEMIST)
TTITLE8=9. PAPERMOON (オープニング/ソウルイーター)
TTITLE9=10. 鐘を鳴らして (テーマ/テイルズオブヴェスペリア)
TTITLE10=11. Baptize (聖痕のクェイサーより(TVアニメ))
TTITLE11=12. SOMEONE ELSE (テーマ/WORKING!!)
TTITLE12=13. わが臈たし悪の華 (エンディング/コードギアス反逆のルルーシュR2)
TTITLE13=14. REALOVE:REALIFE
TTITLE14=15. Choose Bright!! (オープニング/ちゅーぶら!!)
TTITLE15=16. RAY OF LIGHT (オープニング/鋼の錬金術師FULLMETAL ALCHEMIST)
TTITLE16=17. 瞬間センチメンタル (エンディング/鋼の錬金術師FULLMETAL ALCHEMIST)
TTITLE17=18. DIVE into YOURSELF (オープニング/戦国BASARA 2)
TTITLE18=19. おしえて A to Z
TTITLE19=20. Colors of the Heart (オープニング/BLOOD+(MBS系))
EXTD=YEAR: 2010
EXTT0=
EXTT1=
EXTT2=
EXTT3=
EXTT4=
EXTT5=
EXTT6=
EXTT7=
EXTT8=
EXTT9=
EXTT10=
EXTT11=
EXTT12=
EXTT13=
EXTT14=
EXTT15=
EXTT16=
EXTT17=
EXTT18=
EXTT19=
PLAYORDER=
